<?xml version="1.0" encoding="UTF-8" standalone="no"?>
<!-- Created with Inkscape (http://www.inkscape.org/) -->

<svg
   version="1.1"
   id="svg2"
   xml:space="preserve"
   width="2245.3333"
   height="1588"
   viewBox="0 0 2245.3333 1588"
   sodipodi:docname="buttons laser cut.svg"
   inkscape:version="1.1.1 (1:1.1+202109281949+c3084ef5ed)"
   xmlns:inkscape="http://www.inkscape.org/namespaces/inkscape"
   xmlns:sodipodi="http://sodipodi.sourceforge.net/DTD/sodipodi-0.dtd"
   xmlns="http://www.w3.org/2000/svg"
   xmlns:svg="http://www.w3.org/2000/svg"><defs
     id="defs6"><clipPath
       clipPathUnits="userSpaceOnUse"
       id="clipPath16"><path
         d="M 0,0 H 14041 V 9933 H 0 Z"
         id="path14" /></clipPath></defs><sodipodi:namedview
     id="namedview4"
     pagecolor="#ffffff"
     bordercolor="#666666"
     borderopacity="1.0"
     inkscape:pageshadow="2"
     inkscape:pageopacity="0.0"
     inkscape:pagecheckerboard="0"
     showgrid="false"
     showguides="true"
     inkscape:guide-bbox="true"
     inkscape:zoom="2.9566681"
     inkscape:cx="406.03136"
     inkscape:cy="325.02802"
     inkscape:window-width="1920"
     inkscape:window-height="1025"
     inkscape:window-x="0"
     inkscape:window-y="0"
     inkscape:window-maximized="1"
     inkscape:current-layer="g8"><sodipodi:guide
       position="461.41652,1281.0919"
       orientation="0,-1"
       id="guide2920" /><sodipodi:guide
       position="396.92861,1220.3478"
       orientation="1,0"
       id="guide2922" /></sodipodi:namedview><g
     id="g8"
     inkscape:groupmode="layer"
     inkscape:label="buttons laser cut"
     transform="matrix(0.16,0,0,-0.16,0,1588)"><g
       id="g2798"
       transform="translate(-2296.9068,-12.215742)"><path
         d="m 5180.76,8019.04 c 0,-195.6853 158.6312,-354.3189 354.3158,-354.3189 195.6845,0 354.3181,158.6336 354.3181,354.3182 0,195.6845 -158.6336,354.3181 -354.3181,354.3181 -195.6846,0 -354.3182,-158.6336 -354.3182,-354.3181"
         style="fill:none;stroke:#000000;stroke-width:9.44849;stroke-linecap:round;stroke-linejoin:round;stroke-miterlimit:10;stroke-dasharray:none;stroke-opacity:1"
         id="path18" /><path
         d="m 5393.35,8019.04 c 0,-78.2746 63.4519,-141.728 141.7258,-141.728 78.2738,0 141.7272,63.4534 141.7272,141.7273 0,78.2738 -63.4534,141.7272 -141.7272,141.7272 -78.2739,0 -141.7273,-63.4534 -141.7273,-141.7272"
         style="fill:none;stroke:#000000;stroke-width:9.44849;stroke-linecap:round;stroke-linejoin:round;stroke-miterlimit:10;stroke-dasharray:none;stroke-opacity:1"
         id="path20" /></g><g
       id="g2805"
       transform="translate(0,-12.215742)"><path
         id="path678"
         style="fill:none;stroke:#000000;stroke-width:8.4398;stroke-linecap:round;stroke-linejoin:round;stroke-miterlimit:10;stroke-dasharray:none;stroke-opacity:1"
         d="m 1787.6914,8005.6771 c 0.5115,2.1784 0.9004,4.3835 1.1609,6.6054 m -1.1609,-6.6054 3.0102,-8.2893 m 0,0 -7.6372,-4.4037 m -3.3497,-5.815 c 1.2269,1.8727 2.3464,3.8118 3.3512,5.8107 m -3.3512,-5.8107 v -8.8163 m 0,0 -8.6912,-1.5364 m -5.1362,-4.3054 c 1.7961,1.3353 3.5114,2.7745 5.1392,4.3092 m -5.1392,-4.3092 -3.0102,-8.2893 m 0,0 -8.6913,1.5274 m -6.2973,-2.2867 c 2.1393,0.6393 4.2433,1.4052 6.2979,2.2905 m -6.2979,-2.2905 -5.6721,-6.7619 m 0,0 -7.6373,4.4127 m -6.7082,0 c 2.233,-0.1298 4.4721,-0.1298 6.7055,-5e-4 m -6.7055,5e-4 -7.6373,-4.4127 m 0,0 -5.6721,6.7619 m -6.2973,2.2867 c 2.051,-0.8815 4.155,-1.6474 6.298,-2.2898 m -6.298,2.2898 -8.6913,-1.5274 m 0,0 -3.0191,8.2893 m -5.1362,4.3054 c 1.6306,-1.5309 3.3458,-2.9701 5.1399,-4.3067 m -5.1399,4.3067 -8.6823,1.5364 m 0,0 v 8.8163 m -3.3586,5.815 c 1.0091,-2.0032 2.1286,-3.9423 3.3573,-5.8119 m -3.3573,5.8119 -7.6372,4.4037 m 0,0 3.0191,8.2893 m -1.1612,6.601 c 0.2577,-2.2175 0.6465,-4.4226 1.1617,-6.5997 m -1.1617,6.5997 -5.6721,6.7619 m 0,0 5.6721,6.7529 m 1.1612,6.61 c -0.5147,-2.1798 -0.9035,-4.3848 -1.164,-6.6068 m 1.164,6.6068 -3.0191,8.2893 m 0,0 7.6372,4.4037 m 3.3586,5.8061 c -1.23,-1.8652 -2.3495,-3.8042 -3.3543,-5.8031 m 3.3543,5.8031 v 8.8252 m 0,0 8.6823,1.5275 m 5.1362,4.3143 c -1.7904,-1.3366 -3.5056,-2.7759 -5.1334,-4.3106 m 5.1334,4.3106 3.0191,8.2893 m 0,0 8.6913,-1.5363 m 6.2973,2.2956 c -2.1423,-0.6406 -4.2463,-1.4064 -6.3009,-2.2918 m 6.3009,2.2918 5.6721,6.7619 m 0,0 7.6373,-4.4127 m 6.7082,0 c -2.2361,0.1285 -4.4752,0.1285 -6.7087,0 m 6.7087,0 7.6373,4.4127 m 0,0 5.6721,-6.7619 m 6.2973,-2.2956 c -2.054,0.8892 -4.158,1.655 -6.301,2.2974 m 6.301,-2.2974 8.6913,1.5363 m 0,0 3.0102,-8.2893 m 5.1362,-4.3143 c -1.6248,1.5384 -3.3401,2.9777 -5.134,4.3143 m 5.134,-4.3143 8.6912,-1.5275 m 0,0 v -8.8252 m 3.3497,-5.8061 c -1.0033,2.0019 -2.1228,3.9409 -3.3515,5.8106 m 3.3515,-5.8106 7.6372,-4.4037 m 0,0 -3.0102,-8.2893 m 1.1612,-6.61 c -0.2608,2.2252 -0.6497,4.4302 -1.1648,6.6073 m 1.1648,-6.6073 5.6721,-6.7529 m 0,0 -5.6721,-6.7619" /><path
         d="m 1376.91,8019.04 c 0,-195.6853 158.6287,-354.3189 354.3133,-354.3189 195.6845,0 354.3182,158.6336 354.3182,354.3182 0,195.6845 -158.6337,354.3181 -354.3182,354.3181 -195.6846,0 -354.3182,-158.6336 -354.3182,-354.3181"
         style="fill:none;stroke:#000000;stroke-width:9.44849;stroke-linecap:round;stroke-linejoin:round;stroke-miterlimit:10;stroke-dasharray:none;stroke-opacity:1"
         id="path680" /></g><g
       id="g2801"
       transform="translate(-35.130874,-12.215742)"><path
         d="m 2161.4395,8019.04 c 0,-195.6853 158.6382,-354.3189 354.3227,-354.3189 195.6845,0 354.3182,158.6336 354.3182,354.3182 0,195.6845 -158.6337,354.3181 -354.3182,354.3181 -195.6845,0 -354.3182,-158.6336 -354.3182,-354.3181"
         style="fill:none;stroke:#000000;stroke-width:9.44849;stroke-linecap:round;stroke-linejoin:round;stroke-miterlimit:10;stroke-dasharray:none;stroke-opacity:1"
         id="path910" /></g><path
       style="fill:none;stroke:#ff0000;stroke-width:6.25px;stroke-linecap:butt;stroke-linejoin:miter;stroke-opacity:1"
       d="m 2480.8038,8006.8243 h 352.7759"
       id="path2957" /></g></svg>
