%TF.GenerationSoftware,KiCad,Pcbnew,5.1.10-88a1d61d58~90~ubuntu20.04.1*%
%TF.CreationDate,2021-10-01T23:23:12+02:00*%
%TF.ProjectId,pcb_kicad,7063625f-6b69-4636-9164-2e6b69636164,rev?*%
%TF.SameCoordinates,Original*%
%TF.FileFunction,Copper,L2,Bot*%
%TF.FilePolarity,Positive*%
%FSLAX46Y46*%
G04 Gerber Fmt 4.6, Leading zero omitted, Abs format (unit mm)*
G04 Created by KiCad (PCBNEW 5.1.10-88a1d61d58~90~ubuntu20.04.1) date 2021-10-01 23:23:12*
%MOMM*%
%LPD*%
G01*
G04 APERTURE LIST*
%TA.AperFunction,ComponentPad*%
%ADD10C,2.340000*%
%TD*%
%TA.AperFunction,ComponentPad*%
%ADD11C,3.000000*%
%TD*%
%TA.AperFunction,ComponentPad*%
%ADD12R,3.000000X3.000000*%
%TD*%
%TA.AperFunction,ComponentPad*%
%ADD13O,1.600000X1.600000*%
%TD*%
%TA.AperFunction,ComponentPad*%
%ADD14R,1.600000X1.600000*%
%TD*%
%TA.AperFunction,ComponentPad*%
%ADD15R,3.500000X3.500000*%
%TD*%
%TA.AperFunction,Conductor*%
%ADD16C,0.250000*%
%TD*%
G04 APERTURE END LIST*
D10*
%TO.P,RV1,1*%
%TO.N,+5V*%
X72390000Y-97790000D03*
%TO.P,RV1,2*%
%TO.N,Net-(Nano1-Pad19)*%
X77390000Y-97790000D03*
%TO.P,RV1,3*%
%TO.N,GND*%
X82390000Y-97790000D03*
%TD*%
%TO.P,RV3,1*%
%TO.N,+5V*%
X135890000Y-97790000D03*
%TO.P,RV3,2*%
%TO.N,Net-(Nano1-Pad21)*%
X140890000Y-97790000D03*
%TO.P,RV3,3*%
%TO.N,GND*%
X145890000Y-97790000D03*
%TD*%
%TO.P,RV2,1*%
%TO.N,+5V*%
X105410000Y-97790000D03*
%TO.P,RV2,2*%
%TO.N,Net-(Nano1-Pad20)*%
X110410000Y-97790000D03*
%TO.P,RV2,3*%
%TO.N,GND*%
X115410000Y-97790000D03*
%TD*%
D11*
%TO.P,J2,4*%
%TO.N,Net-(Driver1-Pad6)*%
X158750000Y-82550000D03*
D12*
%TO.P,J2,1*%
%TO.N,Net-(Driver1-Pad3)*%
X158750000Y-97790000D03*
D11*
%TO.P,J2,3*%
%TO.N,Net-(Driver1-Pad5)*%
X158750000Y-87630000D03*
%TO.P,J2,2*%
%TO.N,Net-(Driver1-Pad4)*%
X158750000Y-92710000D03*
%TD*%
D13*
%TO.P,Nano1,16*%
%TO.N,N/C*%
X78740000Y-80010000D03*
%TO.P,Nano1,15*%
X78740000Y-64770000D03*
%TO.P,Nano1,30*%
%TO.N,+12V*%
X114300000Y-80010000D03*
%TO.P,Nano1,14*%
%TO.N,N/C*%
X81280000Y-64770000D03*
%TO.P,Nano1,29*%
%TO.N,GND*%
X111760000Y-80010000D03*
%TO.P,Nano1,13*%
%TO.N,N/C*%
X83820000Y-64770000D03*
%TO.P,Nano1,28*%
X109220000Y-80010000D03*
%TO.P,Nano1,12*%
X86360000Y-64770000D03*
%TO.P,Nano1,27*%
%TO.N,+5V*%
X106680000Y-80010000D03*
%TO.P,Nano1,11*%
%TO.N,N/C*%
X88900000Y-64770000D03*
%TO.P,Nano1,26*%
X104140000Y-80010000D03*
%TO.P,Nano1,10*%
X91440000Y-64770000D03*
%TO.P,Nano1,25*%
X101600000Y-80010000D03*
%TO.P,Nano1,9*%
X93980000Y-64770000D03*
%TO.P,Nano1,24*%
X99060000Y-80010000D03*
%TO.P,Nano1,8*%
X96520000Y-64770000D03*
%TO.P,Nano1,23*%
X96520000Y-80010000D03*
%TO.P,Nano1,7*%
%TO.N,Net-(Driver1-Pad9)*%
X99060000Y-64770000D03*
%TO.P,Nano1,22*%
%TO.N,N/C*%
X93980000Y-80010000D03*
%TO.P,Nano1,6*%
%TO.N,Net-(Driver1-Pad15)*%
X101600000Y-64770000D03*
%TO.P,Nano1,21*%
%TO.N,Net-(Nano1-Pad21)*%
X91440000Y-80010000D03*
%TO.P,Nano1,5*%
%TO.N,Net-(Driver1-Pad16)*%
X104140000Y-64770000D03*
%TO.P,Nano1,20*%
%TO.N,Net-(Nano1-Pad20)*%
X88900000Y-80010000D03*
%TO.P,Nano1,4*%
%TO.N,GND*%
X106680000Y-64770000D03*
%TO.P,Nano1,19*%
%TO.N,Net-(Nano1-Pad19)*%
X86360000Y-80010000D03*
%TO.P,Nano1,3*%
%TO.N,N/C*%
X109220000Y-64770000D03*
%TO.P,Nano1,18*%
X83820000Y-80010000D03*
%TO.P,Nano1,2*%
X111760000Y-64770000D03*
%TO.P,Nano1,17*%
X81280000Y-80010000D03*
D14*
%TO.P,Nano1,1*%
X114300000Y-64770000D03*
%TD*%
%TO.P,J1,3*%
%TO.N,N/C*%
%TA.AperFunction,ComponentPad*%
G36*
G01*
X160960000Y-65545000D02*
X160960000Y-67295000D01*
G75*
G02*
X160085000Y-68170000I-875000J0D01*
G01*
X158335000Y-68170000D01*
G75*
G02*
X157460000Y-67295000I0J875000D01*
G01*
X157460000Y-65545000D01*
G75*
G02*
X158335000Y-64670000I875000J0D01*
G01*
X160085000Y-64670000D01*
G75*
G02*
X160960000Y-65545000I0J-875000D01*
G01*
G37*
%TD.AperFunction*%
%TO.P,J1,2*%
%TO.N,GND*%
%TA.AperFunction,ComponentPad*%
G36*
G01*
X163710000Y-70120000D02*
X163710000Y-72120000D01*
G75*
G02*
X162960000Y-72870000I-750000J0D01*
G01*
X161460000Y-72870000D01*
G75*
G02*
X160710000Y-72120000I0J750000D01*
G01*
X160710000Y-70120000D01*
G75*
G02*
X161460000Y-69370000I750000J0D01*
G01*
X162960000Y-69370000D01*
G75*
G02*
X163710000Y-70120000I0J-750000D01*
G01*
G37*
%TD.AperFunction*%
D15*
%TO.P,J1,1*%
%TO.N,+12V*%
X156210000Y-71120000D03*
%TD*%
D13*
%TO.P,Driver1,16*%
%TO.N,Net-(Driver1-Pad16)*%
X124460000Y-64770000D03*
%TO.P,Driver1,8*%
%TO.N,+12V*%
X142240000Y-77470000D03*
%TO.P,Driver1,15*%
%TO.N,Net-(Driver1-Pad15)*%
X127000000Y-64770000D03*
%TO.P,Driver1,7*%
%TO.N,GND*%
X139700000Y-77470000D03*
%TO.P,Driver1,14*%
%TO.N,Net-(Driver1-Pad13)*%
X129540000Y-64770000D03*
%TO.P,Driver1,6*%
%TO.N,Net-(Driver1-Pad6)*%
X137160000Y-77470000D03*
%TO.P,Driver1,13*%
%TO.N,Net-(Driver1-Pad13)*%
X132080000Y-64770000D03*
%TO.P,Driver1,5*%
%TO.N,Net-(Driver1-Pad5)*%
X134620000Y-77470000D03*
%TO.P,Driver1,12*%
%TO.N,N/C*%
X134620000Y-64770000D03*
%TO.P,Driver1,4*%
%TO.N,Net-(Driver1-Pad4)*%
X132080000Y-77470000D03*
%TO.P,Driver1,11*%
%TO.N,N/C*%
X137160000Y-64770000D03*
%TO.P,Driver1,3*%
%TO.N,Net-(Driver1-Pad3)*%
X129540000Y-77470000D03*
%TO.P,Driver1,10*%
%TO.N,N/C*%
X139700000Y-64770000D03*
%TO.P,Driver1,2*%
%TO.N,+5V*%
X127000000Y-77470000D03*
%TO.P,Driver1,9*%
%TO.N,Net-(Driver1-Pad9)*%
X142240000Y-64770000D03*
D14*
%TO.P,Driver1,1*%
%TO.N,GND*%
X124460000Y-77470000D03*
%TD*%
D16*
%TO.N,Net-(Driver1-Pad16)*%
X105265001Y-63644999D02*
X104140000Y-64770000D01*
X123334999Y-63644999D02*
X105265001Y-63644999D01*
X124460000Y-64770000D02*
X123334999Y-63644999D01*
%TO.N,+12V*%
X139700000Y-80010000D02*
X142240000Y-77470000D01*
X114300000Y-80010000D02*
X139700000Y-80010000D01*
%TO.N,Net-(Driver1-Pad15)*%
X125874999Y-65895001D02*
X127000000Y-64770000D01*
X102725001Y-65895001D02*
X125874999Y-65895001D01*
X101600000Y-64770000D02*
X102725001Y-65895001D01*
%TO.N,GND*%
X138574999Y-78595001D02*
X139700000Y-77470000D01*
X125585001Y-78595001D02*
X138574999Y-78595001D01*
X124460000Y-77470000D02*
X125585001Y-78595001D01*
X145890000Y-79454998D02*
X145890000Y-97790000D01*
X142780001Y-76344999D02*
X145890000Y-79454998D01*
X140825001Y-76344999D02*
X142780001Y-76344999D01*
X139700000Y-77470000D02*
X140825001Y-76344999D01*
X116905001Y-99285001D02*
X115410000Y-97790000D01*
X144394999Y-99285001D02*
X116905001Y-99285001D01*
X145890000Y-97790000D02*
X144394999Y-99285001D01*
X83885001Y-99285001D02*
X82390000Y-97790000D01*
X113914999Y-99285001D02*
X83885001Y-99285001D01*
X115410000Y-97790000D02*
X113914999Y-99285001D01*
%TO.N,+5V*%
X106680000Y-96520000D02*
X105410000Y-97790000D01*
X106680000Y-80010000D02*
X106680000Y-96520000D01*
X103914999Y-96294999D02*
X73885001Y-96294999D01*
X73885001Y-96294999D02*
X72390000Y-97790000D01*
X105410000Y-97790000D02*
X103914999Y-96294999D01*
X134394999Y-96294999D02*
X135890000Y-97790000D01*
X106905001Y-96294999D02*
X134394999Y-96294999D01*
X105410000Y-97790000D02*
X106905001Y-96294999D01*
%TD*%
M02*
