M48
; DRILL file {KiCad 5.1.10-88a1d61d58~90~ubuntu20.04.1} date Fri Oct  1 23:23:08 2021
; FORMAT={-:-/ absolute / inch / decimal}
; #@! TF.CreationDate,2021-10-01T23:23:08+02:00
; #@! TF.GenerationSoftware,Kicad,Pcbnew,5.1.10-88a1d61d58~90~ubuntu20.04.1
; #@! TF.FileFunction,Plated,1,2,PTH
FMAT,2
INCH
T1C0.0315
T2C0.0394
T3C0.0512
T4C0.0598
%
G90
G05
T1
X4.9Y-2.55
X4.9Y-3.05
X5.0Y-2.55
X5.0Y-3.05
X5.1Y-2.55
X5.1Y-3.05
X5.2Y-2.55
X5.2Y-3.05
X5.3Y-2.55
X5.3Y-3.05
X5.4Y-2.55
X5.4Y-3.05
X5.5Y-2.55
X5.5Y-3.05
X5.6Y-2.55
X5.6Y-3.05
T2
X3.1Y-2.55
X3.1Y-3.15
X3.2Y-2.55
X3.2Y-3.15
X3.3Y-2.55
X3.3Y-3.15
X3.4Y-2.55
X3.4Y-3.15
X3.5Y-2.55
X3.5Y-3.15
X3.6Y-2.55
X3.6Y-3.15
X3.7Y-2.55
X3.7Y-3.15
X3.8Y-2.55
X3.8Y-3.15
X3.9Y-2.55
X3.9Y-3.15
X4.0Y-2.55
X4.0Y-3.15
X4.1Y-2.55
X4.1Y-3.15
X4.2Y-2.55
X4.2Y-3.15
X4.3Y-2.55
X4.3Y-3.15
X4.4Y-2.55
X4.4Y-3.15
X4.5Y-2.55
X4.5Y-3.15
T3
X2.85Y-3.85
X3.0469Y-3.85
X3.2437Y-3.85
X4.15Y-3.85
X4.3469Y-3.85
X4.5437Y-3.85
X5.35Y-3.85
X5.5469Y-3.85
X5.7437Y-3.85
T4
X6.25Y-3.25
X6.25Y-3.45
X6.25Y-3.65
X6.25Y-3.85
T2
G00X6.15Y-2.8394
M15
G01X6.15Y-2.7606
M16
G05
G00X6.3075Y-2.615
M15
G01X6.2287Y-2.615
M16
G05
G00X6.3862Y-2.8394
M15
G01X6.3862Y-2.7606
M16
G05
T0
M30
