%TF.GenerationSoftware,KiCad,Pcbnew,5.1.10-88a1d61d58~90~ubuntu20.04.1*%
%TF.CreationDate,2021-10-01T23:23:12+02:00*%
%TF.ProjectId,pcb_kicad,7063625f-6b69-4636-9164-2e6b69636164,rev?*%
%TF.SameCoordinates,Original*%
%TF.FileFunction,Legend,Top*%
%TF.FilePolarity,Positive*%
%FSLAX46Y46*%
G04 Gerber Fmt 4.6, Leading zero omitted, Abs format (unit mm)*
G04 Created by KiCad (PCBNEW 5.1.10-88a1d61d58~90~ubuntu20.04.1) date 2021-10-01 23:23:12*
%MOMM*%
%LPD*%
G01*
G04 APERTURE LIST*
%ADD10C,0.120000*%
%ADD11C,0.150000*%
G04 APERTURE END LIST*
D10*
%TO.C,RV1*%
X86460000Y-90970000D02*
X86460000Y-101710000D01*
X68320000Y-90970000D02*
X68320000Y-101710000D01*
X86460000Y-90970000D02*
X68320000Y-90970000D01*
X86460000Y-101710000D02*
X68320000Y-101710000D01*
X81010000Y-101710000D02*
X81010000Y-106710000D01*
X73770000Y-101710000D02*
X73770000Y-106710000D01*
X81010000Y-101710000D02*
X73770000Y-101710000D01*
X81010000Y-106710000D02*
X73770000Y-106710000D01*
X80510000Y-106710000D02*
X80510000Y-116710000D01*
X74269000Y-106710000D02*
X74269000Y-116710000D01*
X80510000Y-106710000D02*
X74269000Y-106710000D01*
X80510000Y-116710000D02*
X74269000Y-116710000D01*
%TO.C,RV3*%
X149960000Y-90970000D02*
X149960000Y-101710000D01*
X131820000Y-90970000D02*
X131820000Y-101710000D01*
X149960000Y-90970000D02*
X131820000Y-90970000D01*
X149960000Y-101710000D02*
X131820000Y-101710000D01*
X144510000Y-101710000D02*
X144510000Y-106710000D01*
X137270000Y-101710000D02*
X137270000Y-106710000D01*
X144510000Y-101710000D02*
X137270000Y-101710000D01*
X144510000Y-106710000D02*
X137270000Y-106710000D01*
X144010000Y-106710000D02*
X144010000Y-116710000D01*
X137769000Y-106710000D02*
X137769000Y-116710000D01*
X144010000Y-106710000D02*
X137769000Y-106710000D01*
X144010000Y-116710000D02*
X137769000Y-116710000D01*
%TO.C,RV2*%
X119480000Y-90970000D02*
X119480000Y-101710000D01*
X101340000Y-90970000D02*
X101340000Y-101710000D01*
X119480000Y-90970000D02*
X101340000Y-90970000D01*
X119480000Y-101710000D02*
X101340000Y-101710000D01*
X114030000Y-101710000D02*
X114030000Y-106710000D01*
X106790000Y-101710000D02*
X106790000Y-106710000D01*
X114030000Y-101710000D02*
X106790000Y-101710000D01*
X114030000Y-106710000D02*
X106790000Y-106710000D01*
X113530000Y-106710000D02*
X113530000Y-116710000D01*
X107289000Y-106710000D02*
X107289000Y-116710000D01*
X113530000Y-106710000D02*
X107289000Y-106710000D01*
X113530000Y-116710000D02*
X107289000Y-116710000D01*
%TO.C,J2*%
X162560000Y-100330000D02*
X162560000Y-80010000D01*
X154940000Y-100330000D02*
X154940000Y-80010000D01*
X161290000Y-80010000D02*
X161290000Y-100330000D01*
X162560000Y-80010000D02*
X154940000Y-80010000D01*
X154940000Y-100330000D02*
X162560000Y-100330000D01*
%TO.C,Nano1*%
X113030000Y-66040000D02*
X115570000Y-66040000D01*
X115570000Y-66040000D02*
X115570000Y-63370000D01*
X113030000Y-63370000D02*
X74800000Y-63370000D01*
X118240000Y-63370000D02*
X115570000Y-63370000D01*
X115570000Y-78740000D02*
X115570000Y-81410000D01*
X115570000Y-78740000D02*
X77470000Y-78740000D01*
X77470000Y-78740000D02*
X77470000Y-81410000D01*
X113030000Y-66040000D02*
X113030000Y-63370000D01*
X113030000Y-66040000D02*
X77470000Y-66040000D01*
X77470000Y-66040000D02*
X77470000Y-63370000D01*
X74800000Y-63370000D02*
X74800000Y-81410000D01*
X74800000Y-81410000D02*
X118240000Y-81410000D01*
X118240000Y-81410000D02*
X118240000Y-63370000D01*
%TO.C,J1*%
X155110000Y-74870000D02*
X155110000Y-75920000D01*
X156160000Y-75920000D02*
X155110000Y-75920000D01*
X161210000Y-66520000D02*
X170010000Y-66520000D01*
X170010000Y-66520000D02*
X170010000Y-75720000D01*
X155310000Y-69220000D02*
X155310000Y-66520000D01*
X155310000Y-66520000D02*
X157210000Y-66520000D01*
X170010000Y-75720000D02*
X155310000Y-75720000D01*
X155310000Y-75720000D02*
X155310000Y-73120000D01*
%TO.C,Driver1*%
X123060000Y-66040000D02*
X143640000Y-66040000D01*
X125730000Y-76200000D02*
X143640000Y-76200000D01*
X123060000Y-77470000D02*
X123060000Y-78870000D01*
X123060000Y-78870000D02*
X124460000Y-78870000D01*
X123060000Y-76200000D02*
X125730000Y-76200000D01*
X125730000Y-76200000D02*
X125730000Y-78870000D01*
X125730000Y-78870000D02*
X143640000Y-78870000D01*
X143640000Y-78870000D02*
X143640000Y-63370000D01*
X143640000Y-63370000D02*
X123060000Y-63370000D01*
X123060000Y-63370000D02*
X123060000Y-76200000D01*
%TO.C,RV1*%
D11*
X88042380Y-98385238D02*
X87566190Y-98718571D01*
X88042380Y-98956666D02*
X87042380Y-98956666D01*
X87042380Y-98575714D01*
X87090000Y-98480476D01*
X87137619Y-98432857D01*
X87232857Y-98385238D01*
X87375714Y-98385238D01*
X87470952Y-98432857D01*
X87518571Y-98480476D01*
X87566190Y-98575714D01*
X87566190Y-98956666D01*
X87042380Y-98099523D02*
X88042380Y-97766190D01*
X87042380Y-97432857D01*
X88042380Y-96575714D02*
X88042380Y-97147142D01*
X88042380Y-96861428D02*
X87042380Y-96861428D01*
X87185238Y-96956666D01*
X87280476Y-97051904D01*
X87328095Y-97147142D01*
%TO.C,RV3*%
X151542380Y-98385238D02*
X151066190Y-98718571D01*
X151542380Y-98956666D02*
X150542380Y-98956666D01*
X150542380Y-98575714D01*
X150590000Y-98480476D01*
X150637619Y-98432857D01*
X150732857Y-98385238D01*
X150875714Y-98385238D01*
X150970952Y-98432857D01*
X151018571Y-98480476D01*
X151066190Y-98575714D01*
X151066190Y-98956666D01*
X150542380Y-98099523D02*
X151542380Y-97766190D01*
X150542380Y-97432857D01*
X150542380Y-97194761D02*
X150542380Y-96575714D01*
X150923333Y-96909047D01*
X150923333Y-96766190D01*
X150970952Y-96670952D01*
X151018571Y-96623333D01*
X151113809Y-96575714D01*
X151351904Y-96575714D01*
X151447142Y-96623333D01*
X151494761Y-96670952D01*
X151542380Y-96766190D01*
X151542380Y-97051904D01*
X151494761Y-97147142D01*
X151447142Y-97194761D01*
%TO.C,RV2*%
X121062380Y-98385238D02*
X120586190Y-98718571D01*
X121062380Y-98956666D02*
X120062380Y-98956666D01*
X120062380Y-98575714D01*
X120110000Y-98480476D01*
X120157619Y-98432857D01*
X120252857Y-98385238D01*
X120395714Y-98385238D01*
X120490952Y-98432857D01*
X120538571Y-98480476D01*
X120586190Y-98575714D01*
X120586190Y-98956666D01*
X120062380Y-98099523D02*
X121062380Y-97766190D01*
X120062380Y-97432857D01*
X120157619Y-97147142D02*
X120110000Y-97099523D01*
X120062380Y-97004285D01*
X120062380Y-96766190D01*
X120110000Y-96670952D01*
X120157619Y-96623333D01*
X120252857Y-96575714D01*
X120348095Y-96575714D01*
X120490952Y-96623333D01*
X121062380Y-97194761D01*
X121062380Y-96575714D01*
%TO.C,J2*%
X153402380Y-90523333D02*
X154116666Y-90523333D01*
X154259523Y-90570952D01*
X154354761Y-90666190D01*
X154402380Y-90809047D01*
X154402380Y-90904285D01*
X153497619Y-90094761D02*
X153450000Y-90047142D01*
X153402380Y-89951904D01*
X153402380Y-89713809D01*
X153450000Y-89618571D01*
X153497619Y-89570952D01*
X153592857Y-89523333D01*
X153688095Y-89523333D01*
X153830952Y-89570952D01*
X154402380Y-90142380D01*
X154402380Y-89523333D01*
%TO.C,Nano1*%
X119832380Y-74509047D02*
X118832380Y-74509047D01*
X119832380Y-73937619D01*
X118832380Y-73937619D01*
X119832380Y-73032857D02*
X119308571Y-73032857D01*
X119213333Y-73080476D01*
X119165714Y-73175714D01*
X119165714Y-73366190D01*
X119213333Y-73461428D01*
X119784761Y-73032857D02*
X119832380Y-73128095D01*
X119832380Y-73366190D01*
X119784761Y-73461428D01*
X119689523Y-73509047D01*
X119594285Y-73509047D01*
X119499047Y-73461428D01*
X119451428Y-73366190D01*
X119451428Y-73128095D01*
X119403809Y-73032857D01*
X119165714Y-72556666D02*
X119832380Y-72556666D01*
X119260952Y-72556666D02*
X119213333Y-72509047D01*
X119165714Y-72413809D01*
X119165714Y-72270952D01*
X119213333Y-72175714D01*
X119308571Y-72128095D01*
X119832380Y-72128095D01*
X119832380Y-71509047D02*
X119784761Y-71604285D01*
X119737142Y-71651904D01*
X119641904Y-71699523D01*
X119356190Y-71699523D01*
X119260952Y-71651904D01*
X119213333Y-71604285D01*
X119165714Y-71509047D01*
X119165714Y-71366190D01*
X119213333Y-71270952D01*
X119260952Y-71223333D01*
X119356190Y-71175714D01*
X119641904Y-71175714D01*
X119737142Y-71223333D01*
X119784761Y-71270952D01*
X119832380Y-71366190D01*
X119832380Y-71509047D01*
X119832380Y-70223333D02*
X119832380Y-70794761D01*
X119832380Y-70509047D02*
X118832380Y-70509047D01*
X118975238Y-70604285D01*
X119070476Y-70699523D01*
X119118095Y-70794761D01*
%TO.C,J1*%
X164326666Y-64822380D02*
X164326666Y-65536666D01*
X164279047Y-65679523D01*
X164183809Y-65774761D01*
X164040952Y-65822380D01*
X163945714Y-65822380D01*
X165326666Y-65822380D02*
X164755238Y-65822380D01*
X165040952Y-65822380D02*
X165040952Y-64822380D01*
X164945714Y-64965238D01*
X164850476Y-65060476D01*
X164755238Y-65108095D01*
%TO.C,Driver1*%
X122372380Y-73524761D02*
X121372380Y-73524761D01*
X121372380Y-73286666D01*
X121420000Y-73143809D01*
X121515238Y-73048571D01*
X121610476Y-73000952D01*
X121800952Y-72953333D01*
X121943809Y-72953333D01*
X122134285Y-73000952D01*
X122229523Y-73048571D01*
X122324761Y-73143809D01*
X122372380Y-73286666D01*
X122372380Y-73524761D01*
X122372380Y-72524761D02*
X121705714Y-72524761D01*
X121896190Y-72524761D02*
X121800952Y-72477142D01*
X121753333Y-72429523D01*
X121705714Y-72334285D01*
X121705714Y-72239047D01*
X122372380Y-71905714D02*
X121705714Y-71905714D01*
X121372380Y-71905714D02*
X121420000Y-71953333D01*
X121467619Y-71905714D01*
X121420000Y-71858095D01*
X121372380Y-71905714D01*
X121467619Y-71905714D01*
X121705714Y-71524761D02*
X122372380Y-71286666D01*
X121705714Y-71048571D01*
X122324761Y-70286666D02*
X122372380Y-70381904D01*
X122372380Y-70572380D01*
X122324761Y-70667619D01*
X122229523Y-70715238D01*
X121848571Y-70715238D01*
X121753333Y-70667619D01*
X121705714Y-70572380D01*
X121705714Y-70381904D01*
X121753333Y-70286666D01*
X121848571Y-70239047D01*
X121943809Y-70239047D01*
X122039047Y-70715238D01*
X122372380Y-69810476D02*
X121705714Y-69810476D01*
X121896190Y-69810476D02*
X121800952Y-69762857D01*
X121753333Y-69715238D01*
X121705714Y-69620000D01*
X121705714Y-69524761D01*
X122372380Y-68667619D02*
X122372380Y-69239047D01*
X122372380Y-68953333D02*
X121372380Y-68953333D01*
X121515238Y-69048571D01*
X121610476Y-69143809D01*
X121658095Y-69239047D01*
%TD*%
M02*
