%TF.GenerationSoftware,KiCad,Pcbnew,5.1.10-88a1d61d58~90~ubuntu20.04.1*%
%TF.CreationDate,2021-10-01T23:23:12+02:00*%
%TF.ProjectId,pcb_kicad,7063625f-6b69-4636-9164-2e6b69636164,rev?*%
%TF.SameCoordinates,Original*%
%TF.FileFunction,Soldermask,Bot*%
%TF.FilePolarity,Negative*%
%FSLAX46Y46*%
G04 Gerber Fmt 4.6, Leading zero omitted, Abs format (unit mm)*
G04 Created by KiCad (PCBNEW 5.1.10-88a1d61d58~90~ubuntu20.04.1) date 2021-10-01 23:23:12*
%MOMM*%
%LPD*%
G01*
G04 APERTURE LIST*
%ADD10C,2.340000*%
%ADD11C,3.000000*%
%ADD12R,3.000000X3.000000*%
%ADD13O,1.600000X1.600000*%
%ADD14R,1.600000X1.600000*%
%ADD15R,3.500000X3.500000*%
G04 APERTURE END LIST*
D10*
%TO.C,RV1*%
X72390000Y-97790000D03*
X77390000Y-97790000D03*
X82390000Y-97790000D03*
%TD*%
%TO.C,RV3*%
X135890000Y-97790000D03*
X140890000Y-97790000D03*
X145890000Y-97790000D03*
%TD*%
%TO.C,RV2*%
X105410000Y-97790000D03*
X110410000Y-97790000D03*
X115410000Y-97790000D03*
%TD*%
D11*
%TO.C,J2*%
X158750000Y-82550000D03*
D12*
X158750000Y-97790000D03*
D11*
X158750000Y-87630000D03*
X158750000Y-92710000D03*
%TD*%
D13*
%TO.C,Nano1*%
X78740000Y-80010000D03*
X78740000Y-64770000D03*
X114300000Y-80010000D03*
X81280000Y-64770000D03*
X111760000Y-80010000D03*
X83820000Y-64770000D03*
X109220000Y-80010000D03*
X86360000Y-64770000D03*
X106680000Y-80010000D03*
X88900000Y-64770000D03*
X104140000Y-80010000D03*
X91440000Y-64770000D03*
X101600000Y-80010000D03*
X93980000Y-64770000D03*
X99060000Y-80010000D03*
X96520000Y-64770000D03*
X96520000Y-80010000D03*
X99060000Y-64770000D03*
X93980000Y-80010000D03*
X101600000Y-64770000D03*
X91440000Y-80010000D03*
X104140000Y-64770000D03*
X88900000Y-80010000D03*
X106680000Y-64770000D03*
X86360000Y-80010000D03*
X109220000Y-64770000D03*
X83820000Y-80010000D03*
X111760000Y-64770000D03*
X81280000Y-80010000D03*
D14*
X114300000Y-64770000D03*
%TD*%
%TO.C,J1*%
G36*
G01*
X160960000Y-65545000D02*
X160960000Y-67295000D01*
G75*
G02*
X160085000Y-68170000I-875000J0D01*
G01*
X158335000Y-68170000D01*
G75*
G02*
X157460000Y-67295000I0J875000D01*
G01*
X157460000Y-65545000D01*
G75*
G02*
X158335000Y-64670000I875000J0D01*
G01*
X160085000Y-64670000D01*
G75*
G02*
X160960000Y-65545000I0J-875000D01*
G01*
G37*
G36*
G01*
X163710000Y-70120000D02*
X163710000Y-72120000D01*
G75*
G02*
X162960000Y-72870000I-750000J0D01*
G01*
X161460000Y-72870000D01*
G75*
G02*
X160710000Y-72120000I0J750000D01*
G01*
X160710000Y-70120000D01*
G75*
G02*
X161460000Y-69370000I750000J0D01*
G01*
X162960000Y-69370000D01*
G75*
G02*
X163710000Y-70120000I0J-750000D01*
G01*
G37*
D15*
X156210000Y-71120000D03*
%TD*%
D13*
%TO.C,Driver1*%
X124460000Y-64770000D03*
X142240000Y-77470000D03*
X127000000Y-64770000D03*
X139700000Y-77470000D03*
X129540000Y-64770000D03*
X137160000Y-77470000D03*
X132080000Y-64770000D03*
X134620000Y-77470000D03*
X134620000Y-64770000D03*
X132080000Y-77470000D03*
X137160000Y-64770000D03*
X129540000Y-77470000D03*
X139700000Y-64770000D03*
X127000000Y-77470000D03*
X142240000Y-64770000D03*
D14*
X124460000Y-77470000D03*
%TD*%
M02*
